<svg xmlns="http://www.w3.org/2000/svg" width="19.704" height="19.704" viewBox="0 0 19.704 19.704">
  <path id="Icon_awesome-facebook-square" data-name="Icon awesome-facebook-square" d="M17.593,2.25H2.111A2.111,2.111,0,0,0,0,4.361V19.843a2.111,2.111,0,0,0,2.111,2.111H8.148v-6.7H5.377V12.1H8.148V9.7c0-2.734,1.627-4.243,4.12-4.243a16.787,16.787,0,0,1,2.442.213V8.351H13.334a1.577,1.577,0,0,0-1.778,1.7V12.1h3.025L14.1,15.255H11.556v6.7h6.037A2.111,2.111,0,0,0,19.7,19.843V4.361A2.111,2.111,0,0,0,17.593,2.25Z" transform="translate(0 -2.25)"/>
</svg>
