<svg xmlns="http://www.w3.org/2000/svg" width="19.705" height="19.705" viewBox="0 0 19.705 19.705">
  <path id="Exclusion_6" data-name="Exclusion 6" d="M16.7,19.7H3a3,3,0,0,1-3-3V3A3,3,0,0,1,3,0H16.7a3,3,0,0,1,3,3V16.7A3,3,0,0,1,16.7,19.7ZM3.092,10.175v5.37a1.069,1.069,0,0,0,1.066,1.068H15.546a1.069,1.069,0,0,0,1.067-1.068v-5.37a2.234,2.234,0,0,1-2.847-1,2.213,2.213,0,0,1-3.913,0,2.215,2.215,0,0,1-3.916,0,2.25,2.25,0,0,1-1.957,1.178A2.273,2.273,0,0,1,3.092,10.175Zm10.674-2.04h0a1.958,1.958,0,0,0,3.914-.063L16.569,3.848a1.068,1.068,0,0,0-1.023-.757H4.158a1.077,1.077,0,0,0-1.022.757L2.023,8.072a1.957,1.957,0,0,0,3.914,0,1.958,1.958,0,0,0,3.915,0,1.957,1.957,0,0,0,3.913.06Zm-.177,7.411a1.957,1.957,0,0,1,0-3.914,1.888,1.888,0,0,1,1.309.509l-.56.561a1.057,1.057,0,0,0-.732-.292h-.017a1.179,1.179,0,0,0,0,2.357.994.994,0,0,0,1.054-.777H13.588v-.757h1.844a2.31,2.31,0,0,1,.035.4A1.8,1.8,0,0,1,13.588,15.546Z"/>
</svg>
