<svg xmlns="http://www.w3.org/2000/svg" width="19.705" height="19.705" viewBox="0 0 19.705 19.705">
  <path id="Exclusion_5" data-name="Exclusion 5" d="M16.7,19.7H3a3,3,0,0,1-3-3V3A3,3,0,0,1,3,0H16.7a3,3,0,0,1,3,3V16.7A3,3,0,0,1,16.7,19.7ZM9.852,2.728A6.865,6.865,0,0,0,2.729,9.637a6.767,6.767,0,0,0,2.232,5.112.569.569,0,0,1,.19.4l.041,1.271a.57.57,0,0,0,.8.5L7.412,16.3a.569.569,0,0,1,.38-.03,7.76,7.76,0,0,0,2.06.273,6.865,6.865,0,0,0,7.124-6.91A6.865,6.865,0,0,0,9.852,2.728ZM5.86,12.181a.349.349,0,0,1-.3-.185.317.317,0,0,1,.019-.333l2.09-3.325a1.069,1.069,0,0,1,1.549-.285L10.879,9.3a.421.421,0,0,0,.258.089A.4.4,0,0,0,11.39,9.3l2.25-1.7a.335.335,0,0,1,.2-.071.351.351,0,0,1,.3.185.315.315,0,0,1-.02.332l-2.09,3.325a1.069,1.069,0,0,1-.907.5,1.053,1.053,0,0,1-.637-.212L8.832,10.4a.436.436,0,0,0-.261-.089.416.416,0,0,0-.256.089l-2.25,1.7A.331.331,0,0,1,5.86,12.181Z"/>
</svg>
