<svg xmlns="http://www.w3.org/2000/svg" width="19.704" height="19.704" viewBox="0 0 19.704 19.704">
  <path id="Icon_awesome-whatsapp-square" data-name="Icon awesome-whatsapp-square" d="M9.852,6.244a5.8,5.8,0,0,0-4.913,8.88l.136.22-.585,2.138L6.685,16.9l.211.128a5.782,5.782,0,0,0,2.951.809h0a5.862,5.862,0,0,0,5.863-5.8,5.824,5.824,0,0,0-1.764-4.1A5.752,5.752,0,0,0,9.852,6.244Zm3.409,8.286a1.777,1.777,0,0,1-1.174.827A3.4,3.4,0,0,1,10,14.921a7.829,7.829,0,0,1-2.978-2.63,3.377,3.377,0,0,1-.713-1.8,1.952,1.952,0,0,1,.611-1.456.635.635,0,0,1,.466-.22c.114,0,.233,0,.334,0s.251-.04.391.3.493,1.205.537,1.293a.308.308,0,0,1,.013.3c-.334.669-.691.642-.51.95a4.748,4.748,0,0,0,2.371,2.072c.176.088.277.075.378-.044s.435-.51.55-.682.233-.145.391-.088,1.016.479,1.192.567.29.132.334.2a1.547,1.547,0,0,1-.106.84ZM17.593,2.25H2.111A2.112,2.112,0,0,0,0,4.361V19.843a2.112,2.112,0,0,0,2.111,2.111H17.593A2.112,2.112,0,0,0,19.7,19.843V4.361A2.112,2.112,0,0,0,17.593,2.25ZM9.848,19.016a6.968,6.968,0,0,1-3.334-.849l-3.7.972.99-3.615a6.988,6.988,0,1,1,13.085-3.479A7.039,7.039,0,0,1,9.848,19.016Z" transform="translate(0 -2.25)"/>
</svg>
